<svg width="86" height="86" viewBox="0 0 86 86" fill="none" xmlns="http://www.w3.org/2000/svg">
<path d="M57.284 59.336L75.012 49.1427C77.868 47.4934 81.5533 48.4814 83.2013 51.3387C84.8507 54.1947 83.8627 57.8827 81.0067 59.532L55.128 74.2854C53.9213 74.972 52.5587 75.3334 51.1707 75.3334H31.5227C30.0747 75.3334 28.6533 75.7267 27.4107 76.472L22.648 79.3334" stroke="#CBB45E" stroke-width="2.66667" stroke-miterlimit="10" stroke-linecap="round" stroke-linejoin="round"/>
<path d="M36 62H51.3347C54.6347 62 57.3334 59.3013 57.3334 56.0013V55.9947C57.3334 52.6973 54.636 50 51.3387 50H29.5947C28.1294 50 26.6907 50.404 25.4387 51.1667L12.0294 59.3333" stroke="#CBB45E" stroke-width="2.66667" stroke-miterlimit="10" stroke-linecap="round" stroke-linejoin="round"/>
<path d="M1.33334 60.668L7.99467 56.668L23.98 81.996L20 84.6667" stroke="#CBB45E" stroke-width="2.66667" stroke-miterlimit="10" stroke-linejoin="round"/>
<path d="M45.3334 2.00004L10.6667 26V34H18.6667V30L45.3334 11.3334L72 30V35.3334H80V26L45.3334 2.00004Z" stroke="#CBB45E" stroke-width="2.66667" stroke-miterlimit="10" stroke-linecap="round" stroke-linejoin="round"/>
<path d="M58.6667 4.66667V2H72V14" stroke="#CBB45E" stroke-width="2.66667" stroke-miterlimit="10" stroke-linecap="square" stroke-linejoin="round"/>
<path d="M18.6667 54V39.3333" stroke="#CBB45E" stroke-width="2.66667" stroke-miterlimit="10" stroke-linecap="square" stroke-linejoin="round"/>
<path d="M72 40.6667V50" stroke="#CBB45E" stroke-width="2.66667" stroke-miterlimit="10" stroke-linecap="square" stroke-linejoin="round"/>
</svg>
