<svg width="86" height="86" viewBox="0 0 86 86" fill="none" xmlns="http://www.w3.org/2000/svg">
<path d="M84.3333 32V41.3333H79V81.3333C79 82.8053 77.8053 84 76.3333 84H9.66669C8.19469 84 7.00002 82.8053 7.00002 81.3333V41.3333H1.66669V32L41.412 2.51202C42.3547 1.81202 43.6454 1.81202 44.588 2.51202L84.3333 32Z" stroke="#CBB45E" stroke-width="2.66667" stroke-miterlimit="10" stroke-linecap="round" stroke-linejoin="round"/>
<path d="M23.0001 44H31.0001V69.3333H23.0001" stroke="#CBB45E" stroke-width="2.66667" stroke-miterlimit="10" stroke-linecap="square" stroke-linejoin="round"/>
<path d="M32.3334 46.6667H33.6667C34.7574 46.1507 38.6254 43.504 39 42.6667C40.0667 40.2867 42.7347 34.3867 43.4334 31.8907C43.8747 30.316 43.7307 28.06 43.5614 26.604C43.4374 25.5347 43.9721 24.524 44.8907 23.9613C46.4014 23.0347 47.7174 23.208 48.9507 24.5253C50.0374 25.684 50.648 27.2253 50.928 28.7893C51.588 32.4907 51.0614 37.8613 49.6667 41.3333H61C62.8334 41.3333 64.3334 42.8333 64.3334 44.6667C64.3334 46.5 62.8334 48 61 48H59C59.228 48 60.1187 48.024 60.3334 48.068C61.8507 48.3787 63 49.728 63 51.3333C63 53.1667 61.5 54.6667 59.6667 54.6667H57.6667H58.3334C58.5614 54.6667 58.7854 54.6907 59 54.7347C60.5174 55.0453 61.6667 56.3947 61.6667 58C61.6667 59.8333 60.1667 61.3333 58.3334 61.3333H56.3334H57C58.8334 61.3333 60.3334 62.8333 60.3334 64.6667C60.3334 66.5 58.8334 68 57 68H43L37.6667 66.6667H32.3334" stroke="#CBB45E" stroke-width="2.66667" stroke-miterlimit="10" stroke-linecap="round" stroke-linejoin="round"/>
</svg>
