<svg width="342" height="342" viewBox="0 0 342 342" fill="none" xmlns="http://www.w3.org/2000/svg">
<path d="M147.275 132.573L142.03 133.467L161.698 248.214C162.621 253.627 165.483 258.148 169.306 261.213C173.11 264.281 177.875 265.959 182.787 265.959C187.459 265.974 192.279 264.401 196.286 261.08L285.464 187.64C288.068 185.493 290.044 182.88 291.336 180.054C292.629 177.227 293.238 174.213 293.238 171.214C293.238 167.053 292.038 162.933 289.711 159.386C287.384 155.84 283.876 152.893 279.48 151.227L170.617 109.92C168.106 108.96 165.539 108.507 163.009 108.507C157.265 108.507 151.965 110.867 148.087 114.668C144.209 118.466 141.698 123.827 141.698 129.774C141.698 131 141.809 132.226 142.03 133.48V133.467L147.275 132.573L152.538 131.667C152.427 131.013 152.372 130.387 152.372 129.774C152.39 126.826 153.59 124.226 155.566 122.28C157.524 120.333 160.22 119.174 163.009 119.174C164.246 119.174 165.52 119.386 166.831 119.894L275.695 161.201C277.966 162.08 279.647 163.493 280.792 165.255C281.955 167 282.564 169.107 282.564 171.214C282.564 172.734 282.269 174.226 281.623 175.615C280.976 177 280.035 178.281 278.686 179.4L189.509 252.853C187.404 254.559 185.114 255.28 182.787 255.293C180.349 255.307 177.893 254.426 175.991 252.894C174.07 251.346 172.704 249.226 172.205 246.414L152.538 131.667L147.275 132.573Z" fill="#CBB45E"/>
<path d="M216.439 203.049L257.118 252.449C258.985 254.716 262.354 255.049 264.624 253.169C266.912 251.303 267.223 247.944 265.356 245.663L224.659 196.262C222.791 193.995 219.441 193.662 217.153 195.543C214.882 197.41 214.553 200.769 216.439 203.049" fill="#CBB45E"/>
<path d="M261.212 249.082L264.589 253.187L264.627 253.161C266.766 251.401 269.337 250.56 271.908 250.549C275.041 250.56 278.137 251.816 280.389 254.294L327.207 305.682C329.835 308.56 331.092 312.135 331.11 315.734C331.11 317.881 330.641 320.027 329.722 322.002C328.821 323.974 327.47 325.775 325.669 327.267V327.254L325.631 327.295C322.816 329.601 319.495 330.708 316.136 330.708C313.866 330.708 311.576 330.187 309.531 329.175C307.467 328.16 305.628 326.668 304.145 324.681L262.675 268.882C261.155 266.814 260.423 264.44 260.423 262.054C260.423 260.387 260.78 258.734 261.474 257.227C262.187 255.707 263.201 254.334 264.589 253.187L261.212 249.082L257.815 244.961C255.169 247.134 253.143 249.815 251.792 252.748C250.441 255.681 249.765 258.854 249.765 262.054C249.746 266.642 251.191 271.295 254.119 275.242L295.589 331.041C298.084 334.414 301.293 337.015 304.821 338.747C308.367 340.494 312.252 341.374 316.136 341.374C321.841 341.374 327.639 339.455 332.386 335.535V335.548L332.443 335.508V335.493C335.52 332.975 337.866 329.855 339.423 326.468C340.981 323.08 341.769 319.401 341.769 315.734C341.769 309.602 339.555 303.402 335.089 298.495L288.27 247.107C283.936 242.334 277.912 239.881 271.908 239.881C266.954 239.881 261.943 241.547 257.853 244.934H257.834L257.815 244.961L261.212 249.082" fill="#CBB45E"/>
<path d="M64.4367 74.7081V10.7075H277.76V74.7081C277.76 77.6544 280.157 80.0421 283.107 80.0421C286.057 80.0421 288.435 77.6544 288.435 74.7081V5.37532C288.435 3.97591 287.864 2.60235 286.868 1.60119C285.872 0.614781 284.508 0.0412888 283.107 0.0412888H59.1084C57.7071 0.0412888 56.3243 0.614781 55.3287 1.60119C54.3515 2.60235 53.7615 3.97591 53.7615 5.37532V74.7081C53.7615 77.6544 56.1584 80.0421 59.1084 80.0421C62.0584 80.0421 64.4367 77.6544 64.4367 74.7081Z" fill="#CBB45E"/>
<path d="M165.776 5.37148V69.3711C165.776 72.3177 168.172 74.7051 171.118 74.7051C174.065 74.7051 176.444 72.3177 176.444 69.3711V5.37148C176.444 2.42489 174.065 0.0374787 171.118 0.0374787C168.172 0.0374787 165.776 2.42489 165.776 5.37148Z" fill="#CBB45E"/>
<path d="M112.444 74.7077V138.709H11.0956V80.0406H331.111V138.709H304.427C301.481 138.709 299.098 141.094 299.098 144.042C299.098 146.988 301.481 149.375 304.427 149.375H336.44C337.828 149.375 339.217 148.8 340.212 147.815C341.187 146.815 341.769 145.442 341.769 144.042V74.7077C341.769 73.3078 341.187 71.9342 340.212 70.934C339.217 69.9489 337.828 69.3746 336.44 69.3746H5.76653C4.37794 69.3746 2.98923 69.9489 1.9947 70.934C1.00016 71.9342 0.437256 73.3078 0.437256 74.7077V144.042C0.437256 145.442 1.00016 146.815 1.9947 147.815C2.98923 148.8 4.37794 149.375 5.76653 149.375H117.774C119.162 149.375 120.551 148.8 121.545 147.815C122.521 146.815 123.103 145.442 123.103 144.042V74.7077C123.103 71.7616 120.72 69.3746 117.774 69.3746C114.827 69.3746 112.444 71.7616 112.444 74.7077Z" fill="#CBB45E"/>
<path d="M219.111 74.7051V101.372C219.111 104.318 221.497 106.705 224.444 106.705C227.391 106.705 229.777 104.318 229.777 101.372V74.7051C229.777 71.7585 227.391 69.3722 224.444 69.3722C221.497 69.3722 219.111 71.7585 219.111 74.7051Z" fill="#CBB45E"/>
<path d="M53.7654 144.044V213.378C53.7654 216.323 56.1543 218.71 59.0892 218.71C62.0411 218.71 64.43 216.323 64.43 213.378V144.044C64.43 141.097 62.0411 138.71 59.0892 138.71C56.1543 138.71 53.7654 141.097 53.7654 144.044Z" fill="#CBB45E"/>
<path d="M128.439 208.044H5.77019C4.36586 208.044 2.99664 208.616 1.99605 209.603C0.995467 210.604 0.433838 211.976 0.433838 213.377V282.711C0.433838 284.11 0.995467 285.482 1.99605 286.483C2.99664 287.47 4.36586 288.044 5.77019 288.044H139.094C142.043 288.044 144.43 285.656 144.43 282.711C144.43 279.763 142.043 277.376 139.094 277.376H11.0892V218.71H128.439C131.37 218.71 133.757 216.323 133.757 213.377C133.757 210.43 131.37 208.044 128.439 208.044Z" fill="#CBB45E"/>
<path d="M112.447 213.372V282.705C112.447 285.651 114.834 288.038 117.778 288.038C120.723 288.038 123.11 285.651 123.11 282.705V213.372C123.11 210.424 120.723 208.039 117.778 208.039C114.834 208.039 112.447 210.424 112.447 213.372Z" fill="#CBB45E"/>
</svg>
