<svg width="86" height="86" viewBox="0 0 86 86" fill="none" xmlns="http://www.w3.org/2000/svg">
<path d="M26 79.3334H30V84.6667H19.3333V78.0001L18.844 77.0227C18.2893 75.912 18 74.6867 18 73.4441V63.3334L19.3333 59.3334H15.3333C14.5973 59.3334 14 58.7361 14 58.0001L15.0293 54.9121C15.2107 54.3667 15.7213 54.0001 16.2947 54.0001H20.6667L24.1573 47.0187C25.2867 44.76 27.5947 43.3334 30.12 43.3334H56.5467C59.072 43.3334 61.38 44.76 62.5093 47.0187L66 54.0001H70.372C70.9467 54.0001 71.456 54.3667 71.6373 54.9121L72.6667 58.0001C72.6667 58.7361 72.0707 59.3334 71.3333 59.3334H67.3333L68.6667 63.3334V73.4441C68.6667 74.6867 68.3773 75.912 67.8213 77.0227L67.3333 78.0001V84.6667H56.6667V79.3334H60.6667" stroke="#CBB45E" stroke-width="2.66667" stroke-miterlimit="10" stroke-linecap="round" stroke-linejoin="round"/>
<path d="M28.6667 79.3334H58" stroke="#CBB45E" stroke-width="2.66667" stroke-miterlimit="10" stroke-linecap="round" stroke-linejoin="round"/>
<path d="M23.3333 67.3334H31.3333L30 64.6667" stroke="#CBB45E" stroke-width="2.66667" stroke-miterlimit="10" stroke-linecap="round" stroke-linejoin="round"/>
<path d="M63.3333 67.3334H55.3333L56.6666 64.6667" stroke="#CBB45E" stroke-width="2.66667" stroke-miterlimit="10" stroke-linecap="round" stroke-linejoin="round"/>
<path d="M35.3333 74H51.3333" stroke="#CBB45E" stroke-width="2.66667" stroke-miterlimit="10" stroke-linecap="round" stroke-linejoin="round"/>
<path d="M30 56.6667H56.6667" stroke="#CBB45E" stroke-width="2.66667" stroke-miterlimit="10" stroke-linecap="round" stroke-linejoin="round"/>
<path d="M2 84.6667V18.0001L43.3333 2.00006L84.6667 18.0001V84.6667" stroke="#CBB45E" stroke-width="2.66667" stroke-miterlimit="10" stroke-linecap="square" stroke-linejoin="round"/>
<path d="M79.3333 35.3334H7.33331L22 24.6667H64.6666L79.3333 35.3334Z" stroke="#CBB45E" stroke-width="2.66667" stroke-miterlimit="10" stroke-linecap="square" stroke-linejoin="round"/>
</svg>
