<svg width="342" height="343" viewBox="0 0 342 343" fill="none" xmlns="http://www.w3.org/2000/svg">
<path d="M27.3384 65.0028V310.33C27.3384 311.735 27.9119 313.11 28.8973 314.101C29.8974 315.095 31.2653 315.664 32.6772 315.664H278C280.956 315.664 283.339 313.276 283.339 310.33C283.339 307.386 280.956 304.997 278 304.997H38.0014V65.0028C38.0014 62.0466 35.6187 59.664 32.6772 59.664C29.721 59.664 27.3384 62.0466 27.3384 65.0028" fill="#CBB45E"/>
<path d="M9.76414 95.4381L32.6656 72.55L55.5537 95.4381C57.6393 97.5237 61.0217 97.5237 63.0939 95.4381C65.1795 93.3659 65.1795 89.9834 63.0939 87.8978L36.4357 61.2396C35.433 60.2369 34.056 59.6755 32.6656 59.6755C31.2618 59.6755 29.8848 60.2369 28.8821 61.2396L2.22386 87.8978C0.138269 89.9834 0.138269 93.3659 2.22386 95.4381C4.29609 97.5237 7.69192 97.5237 9.76414 95.4381Z" fill="#CBB45E"/>
<path d="M255.115 340.769L281.78 314.101C282.765 313.11 283.339 311.735 283.339 310.33C283.339 308.927 282.765 307.552 281.78 306.561L255.115 279.896C253.026 277.808 249.644 277.808 247.57 279.896C245.481 281.97 245.481 285.352 247.57 287.441L270.455 310.33L247.57 333.227C245.481 335.31 245.481 338.685 247.57 340.769C249.644 342.852 253.026 342.852 255.115 340.769" fill="#CBB45E"/>
<path d="M332.889 2.56871L87.5532 247.904C85.4735 249.984 85.4735 253.36 87.5532 255.439C89.633 257.519 93.0238 257.519 95.1036 255.439L340.439 10.104C342.519 8.02429 342.519 4.64846 340.439 2.56871C338.359 0.47389 334.968 0.47389 332.889 2.56871Z" fill="#CBB45E"/>
<path d="M332.888 82.5638L167.563 247.904C165.483 249.984 165.483 253.36 167.563 255.439C169.643 257.519 173.019 257.519 175.099 255.439L340.439 90.0991C342.519 88.0194 342.519 84.6435 340.439 82.5638C338.359 80.484 334.968 80.484 332.888 82.5638Z" fill="#CBB45E"/>
<path d="M332.888 162.559L247.558 247.904C245.479 249.984 245.479 253.36 247.558 255.439C249.638 257.519 253.029 257.519 255.109 255.439L340.439 170.109C342.519 168.03 342.519 164.654 340.439 162.559C338.359 160.479 334.968 160.479 332.888 162.559" fill="#CBB45E"/>
<path d="M95.0978 175.437L260.434 10.1017C262.518 8.01682 262.518 4.64884 260.434 2.56392C258.363 0.478999 254.966 0.478999 252.896 2.56392L87.56 167.9C85.4751 169.985 85.4751 173.352 87.56 175.437C89.6449 177.522 93.0275 177.522 95.0978 175.437Z" fill="#CBB45E"/>
<path d="M172.895 2.56596L87.5575 87.9035C85.4724 89.9746 85.4724 93.3559 87.5575 95.4411C89.6427 97.5263 93.024 97.5263 95.1092 95.4411L180.433 10.1036C182.518 8.01843 182.518 4.65114 180.433 2.56596C178.362 0.480781 174.966 0.480781 172.895 2.56596Z" fill="#CBB45E"/>
<path d="M32.6618 11.6673H331.329V310.336C331.329 313.282 333.71 315.669 336.663 315.669C339.616 315.669 341.997 313.282 341.997 310.336V6.33348C341.997 4.93221 341.424 3.56107 340.43 2.56661C339.435 1.57216 338.064 0.999537 336.663 0.999537H32.6618C29.7237 0.999537 27.3279 3.39532 27.3279 6.33348C27.3279 9.2867 29.7237 11.6673 32.6618 11.6673" fill="#CBB45E"/>
</svg>
