<svg width="86" height="86" viewBox="0 0 86 86" fill="none" xmlns="http://www.w3.org/2000/svg">
<path d="M62 24V28H58V46.6667H28.6667V28H24.6667V24L43.3334 10.6667L62 24Z" stroke="#CBB45E" stroke-width="2.66667" stroke-miterlimit="10" stroke-linecap="round" stroke-linejoin="round"/>
<path d="M48.6667 38.6667H38.0001V28H48.6667V38.6667Z" stroke="#CBB45E" stroke-width="2.66667" stroke-miterlimit="10" stroke-linecap="round" stroke-linejoin="round"/>
<path d="M72.6667 30.6667C72.6667 53.3334 43.3334 74.6667 43.3334 74.6667C43.3334 74.6667 14.0001 53.3334 14.0001 30.6667C14.0001 14.4667 27.1334 1.33336 43.3334 1.33336C59.5334 1.33336 72.6667 14.4667 72.6667 30.6667Z" stroke="#CBB45E" stroke-width="2.66667" stroke-miterlimit="10" stroke-linecap="round" stroke-linejoin="round"/>
<path d="M24.6667 74.6667L27.3334 68" stroke="#CBB45E" stroke-width="2.66667" stroke-miterlimit="10" stroke-linecap="round" stroke-linejoin="round"/>
<path d="M62 74.6667L59.3334 68" stroke="#CBB45E" stroke-width="2.66667" stroke-miterlimit="10" stroke-linecap="round" stroke-linejoin="round"/>
<path d="M16.6667 54.6667L14 56L2.00003 84L24.6667 74.6667L43.3334 84L62 74.6667L84.6667 84L72.6667 56L70 54.6667" stroke="#CBB45E" stroke-width="2.66667" stroke-miterlimit="10" stroke-linecap="square" stroke-linejoin="round"/>
</svg>
