<svg width="342" height="342" viewBox="0 0 342 342" fill="none" xmlns="http://www.w3.org/2000/svg">
<path d="M122.985 107.003H117.647C117.647 112.91 115.278 118.217 111.395 122.082C107.541 125.962 102.231 128.337 96.3218 128.337C90.4124 128.337 85.1022 125.962 81.2482 122.082C77.3657 118.217 74.9964 112.91 74.9964 107.003C74.9964 101.097 77.3657 95.7898 81.2482 91.9216C85.1022 88.0419 90.4124 85.6695 96.3218 85.6695C102.231 85.6695 107.541 88.0419 111.395 91.9216C115.278 95.7898 117.647 101.097 117.647 107.003H122.985H128.324C128.324 98.1907 124.727 90.1487 118.96 84.3763C113.165 78.5897 105.143 75.004 96.3218 75.004C87.5005 75.004 79.4784 78.5897 73.7117 84.3763C67.9165 90.1487 64.3193 98.1907 64.3193 107.003C64.3193 115.816 67.9165 123.855 73.7117 129.631C79.4784 135.417 87.5005 139.003 96.3218 139.003C105.143 139.003 113.165 135.417 118.96 129.631C124.727 123.855 128.324 115.816 128.324 107.003H122.985Z" fill="#CBB45E"/>
<path d="M73.4218 268.563L48.3277 243.455V176.336C48.3277 173.376 49.505 170.737 51.4574 168.791C53.3811 166.855 56.0223 165.67 58.9796 165.67H133.659C136.616 165.67 139.257 166.855 141.21 168.791C143.133 170.737 144.311 173.376 144.311 176.336V243.455L119.217 268.563C117.15 270.642 117.15 274.03 119.217 276.109C121.284 278.19 124.672 278.19 126.768 276.109L153.441 249.444C154.417 248.442 154.991 247.07 154.991 245.669V176.336C154.991 170.456 152.58 165.095 148.732 161.257C144.885 157.404 139.545 155.003 133.659 155.003H58.9796C53.1225 155.003 47.7534 157.404 43.906 161.257C40.0587 165.095 37.647 170.456 37.647 176.336V245.669C37.647 247.07 38.2212 248.442 39.2261 249.444L65.8704 276.109C67.9664 278.19 71.3546 278.19 73.4218 276.109C75.5177 274.03 75.5177 270.642 73.4218 268.563" fill="#CBB45E"/>
<path d="M64.3223 240.336V336.335C64.3223 339.281 66.7209 341.669 69.6558 341.669C72.5908 341.669 74.9897 339.281 74.9897 336.335V240.336C74.9897 237.39 72.5908 235.003 69.6558 235.003C66.7209 235.003 64.3223 237.39 64.3223 240.336Z" fill="#CBB45E"/>
<path d="M117.646 240.337V336.335C117.646 339.281 120.045 341.668 122.985 341.668C125.925 341.668 128.324 339.281 128.324 336.335V240.337C128.324 237.388 125.925 235.004 122.985 235.004C120.045 235.004 117.646 237.388 117.646 240.337Z" fill="#CBB45E"/>
<path d="M272.342 107H267.009C267.009 112.904 264.622 118.214 260.763 122.08C256.873 125.96 251.57 128.332 245.677 128.332C239.755 128.332 234.451 125.96 230.591 122.08C226.702 118.214 224.345 112.904 224.345 107C224.345 101.092 226.702 95.7856 230.591 91.9199C234.451 88.0394 239.755 85.6646 245.677 85.6646C251.57 85.6646 256.873 88.0394 260.763 91.9199C264.622 95.7856 267.009 101.092 267.009 107H272.342H277.675C277.675 98.184 274.081 90.1461 268.306 84.3711C262.531 78.5843 254.487 74.9986 245.677 74.9986C236.867 74.9986 228.823 78.5843 223.048 84.3711C217.273 90.1461 213.679 98.184 213.679 107C213.679 115.812 217.273 123.853 223.048 129.625C228.823 135.412 236.867 138.998 245.677 138.998C254.487 138.998 262.531 135.412 268.306 129.625C274.081 123.853 277.675 115.812 277.675 107H272.342Z" fill="#CBB45E"/>
<path d="M222.777 268.56L197.682 243.451V176.332C197.682 173.372 198.867 170.732 200.793 168.786C202.748 166.851 205.385 165.666 208.348 165.666H283.01C285.973 165.666 288.61 166.851 290.565 168.786C292.491 170.732 293.676 173.372 293.676 176.332V243.451L268.581 268.56C266.478 270.64 266.478 274.027 268.581 276.107C270.655 278.187 274.033 278.187 276.107 276.107L302.772 249.439C303.779 248.44 304.342 247.065 304.342 245.667V176.332C304.342 170.451 301.942 165.091 298.091 161.251C294.239 157.4 288.876 155 283.01 155H208.348C202.452 155 197.089 157.4 193.267 161.251C189.415 165.091 187.016 170.451 187.016 176.332V245.667C187.016 247.065 187.579 248.44 188.556 249.439L215.221 276.107C217.325 278.187 220.703 278.187 222.777 276.107C224.85 274.027 224.85 270.64 222.777 268.56" fill="#CBB45E"/>
<path d="M213.678 240.334V336.332C213.678 339.28 216.067 341.666 219.01 341.666C221.953 341.666 224.342 339.28 224.342 336.332V240.334C224.342 237.385 221.953 234.999 219.01 234.999C216.067 234.999 213.678 237.385 213.678 240.334" fill="#CBB45E"/>
<path d="M267.009 240.331V336.332C267.009 339.278 269.396 341.665 272.342 341.665C275.288 341.665 277.675 339.278 277.675 336.332V240.331C277.675 237.385 275.288 234.998 272.342 234.998C269.396 234.998 267.009 237.385 267.009 240.331Z" fill="#CBB45E"/>
<path d="M0.349609 80.3329V336.334C0.349609 339.278 2.7149 341.665 5.6647 341.665C8.6145 341.665 11.0078 339.278 11.0078 336.334V80.3329C11.0078 77.3859 8.6145 74.9982 5.6647 74.9982C2.7149 74.9982 0.349609 77.3859 0.349609 80.3329Z" fill="#CBB45E"/>
<path d="M331 80.3364V336.335C331 339.281 333.388 341.67 336.314 341.67C339.27 341.67 341.658 339.281 341.658 336.335V80.3364C341.658 77.3895 339.27 75.004 336.314 75.004C333.388 75.004 331 77.3895 331 80.3364Z" fill="#CBB45E"/>
<path d="M62.7659 46.7745L96.3332 13.2157L129.901 46.7745C131.961 48.8549 135.367 48.8549 137.427 46.7745C139.516 44.6941 139.516 41.3087 137.427 39.2282L100.111 1.89494C99.1091 0.907669 97.7355 0.33528 96.3332 0.33528C94.931 0.33528 93.5576 0.907669 92.5561 1.89494L55.2113 39.2282C53.1509 41.3087 53.1509 44.6941 55.2113 46.7745C57.3003 48.8549 60.6769 48.8549 62.7659 46.7745" fill="#CBB45E"/>
<path d="M204.559 9.44308L241.889 46.7755C242.893 47.7619 244.251 48.3348 245.669 48.3348C247.057 48.3348 248.445 47.7619 249.419 46.7755L286.778 9.44308C288.846 7.36397 288.846 3.97662 286.778 1.89751C284.682 -0.184552 281.285 -0.184552 279.218 1.89751L245.669 35.4556L212.09 1.89751C210.023 -0.184552 206.626 -0.184552 204.559 1.89751C202.462 3.97662 202.462 7.36397 204.559 9.44308" fill="#CBB45E"/>
</svg>
