<svg width="342" height="343" viewBox="0 0 342 343" fill="none" xmlns="http://www.w3.org/2000/svg">
<path d="M170.992 230.337V331.669H10.9961V54.3367H122.995C125.947 54.3367 128.33 51.9484 128.33 49.0035C128.33 46.0586 125.947 43.6703 122.995 43.6703H5.66113C4.25626 43.6703 2.88692 44.2394 1.89106 45.2334C0.8952 46.2257 0.326172 47.6004 0.326172 49.0035V337.004C0.326172 338.407 0.8952 339.782 1.89106 340.774C2.88692 341.768 4.25626 342.337 5.66113 342.337H176.327C177.731 342.337 179.101 341.768 180.097 340.774C181.092 339.78 181.662 338.407 181.662 337.004V230.337C181.662 227.392 179.279 225.004 176.327 225.004C173.375 225.004 170.992 227.392 170.992 230.337Z" fill="#CBB45E"/>
<path d="M37.6787 198.33H32.3413C32.3413 201.259 33.5482 203.96 35.469 205.874C37.3728 207.794 40.0754 209 42.9991 208.996C45.9397 209 48.6253 207.794 50.5461 205.874C52.4669 203.96 53.6738 201.259 53.6738 198.33C53.6738 195.401 52.4669 192.7 50.5461 190.788C48.6253 188.865 45.9397 187.66 42.9991 187.664C40.0754 187.66 37.3728 188.865 35.469 190.788C33.5482 192.7 32.3413 195.401 32.3413 198.33H37.6787H42.9991H37.6787Z" fill="#CBB45E"/>
<path d="M69.6676 193.004H48.325C45.3789 193.004 42.998 195.392 42.998 198.338C42.998 201.283 45.3789 203.67 48.325 203.67H69.6676C72.6138 203.67 74.9946 201.283 74.9946 198.338C74.9946 195.392 72.6138 193.004 69.6676 193.004Z" fill="#CBB45E"/>
<path d="M160.351 144.996V11.662H309.683V144.996C309.683 147.942 312.069 150.331 315.013 150.331C317.957 150.331 320.342 147.942 320.342 144.996V6.32894C320.342 4.9258 319.764 3.55239 318.777 2.55919C317.789 1.566 316.41 0.995867 315.013 0.995867H155.003C153.605 0.995867 152.226 1.566 151.238 2.55919C150.251 3.55052 149.673 4.9258 149.673 6.32894V144.996C149.673 147.942 152.058 150.331 155.003 150.331C157.947 150.331 160.351 147.942 160.351 144.996" fill="#CBB45E"/>
<path d="M229.673 6.32949V144.996C229.673 147.943 232.068 150.33 235.007 150.33C237.947 150.33 240.342 147.943 240.342 144.996V6.32949C240.342 3.38485 237.947 0.99532 235.007 0.99532C232.068 0.99532 229.673 3.38485 229.673 6.32949" fill="#CBB45E"/>
<path d="M155.003 102.329H315.013C317.957 102.329 320.342 99.9423 320.342 96.9963C320.342 94.0502 317.957 91.6632 315.013 91.6632H155.003C152.058 91.6632 149.673 94.0502 149.673 96.9963C149.673 99.9423 152.058 102.329 155.003 102.329Z" fill="#CBB45E"/>
<path d="M336.333 198.336V193.003H139.002V171.67H331.004V198.336H336.333V193.003V198.336H341.662V166.337C341.662 164.933 341.081 163.559 340.105 162.565C339.11 161.572 337.722 161.004 336.333 161.004H133.654C132.266 161.004 130.896 161.572 129.883 162.565C128.907 163.557 128.325 164.933 128.325 166.337V198.336C128.325 199.74 128.907 201.115 129.883 202.108C130.896 203.101 132.266 203.669 133.654 203.669H336.333C337.722 203.669 339.11 203.101 340.105 202.108C341.081 201.113 341.662 199.74 341.662 198.336H336.333Z" fill="#CBB45E"/>
</svg>
