<svg width="342" height="343" viewBox="0 0 342 343" fill="none" xmlns="http://www.w3.org/2000/svg">
<path d="M139.014 149.998H165.673C178.872 150.001 190.907 144.588 199.57 135.904C208.263 127.229 213.67 115.202 213.67 101.998C213.67 88.7936 208.263 76.7696 199.57 68.0946C190.907 59.4109 178.872 53.9977 165.673 53.9977H160.324V59.3324H165.673C165.673 43.1483 159.103 28.4497 148.492 17.8473C137.88 7.2391 123.199 0.663079 107.006 0.665986C90.8134 0.663079 76.1325 7.2391 65.5214 17.8473C54.9102 28.4497 48.3399 43.1483 48.3399 59.3324H53.6599V53.9977H48.3399C35.1414 53.9977 23.1058 59.4109 14.4425 68.0946C5.75009 76.7696 0.342773 88.7936 0.342773 101.998C0.342773 115.202 5.75009 127.229 14.4425 135.904C23.1058 144.588 35.1414 150.001 48.3399 149.998H74.9986C77.9639 149.998 80.3479 147.611 80.3479 144.666C80.3479 141.721 77.9639 139.332 74.9986 139.332H48.3399C38.0776 139.332 28.7746 135.145 21.9719 128.36C15.1982 121.569 11.0121 112.26 11.0121 101.998C11.0121 91.7357 15.1982 82.4269 21.9719 75.6358C28.7746 68.8534 38.0776 64.6672 48.3399 64.6642H53.6599C55.0554 64.6642 56.4508 64.0973 57.4392 63.1031C58.4277 62.1088 59.0092 60.7366 59.0092 59.3324C59.0092 46.0612 64.3583 34.0925 73.0507 25.3913C81.7722 16.696 93.7497 11.3352 107.006 11.3323C120.263 11.3352 132.241 16.696 140.962 25.3913C149.655 34.0925 155.004 46.0612 155.004 59.3324C155.004 60.7366 155.585 62.1117 156.573 63.1031C157.562 64.0973 158.928 64.6642 160.324 64.6642H165.673C175.935 64.6672 185.238 68.8534 192.041 75.6358C198.814 82.4269 203.001 91.7357 203.001 101.998C203.001 112.26 198.814 121.569 192.041 128.36C185.238 135.145 175.935 139.332 165.673 139.332H139.014C136.049 139.332 133.665 141.721 133.665 144.666C133.665 147.611 136.049 149.998 139.014 149.998" fill="#CBB45E"/>
<path d="M101.659 64.6712V272.671H5.66932C2.71053 272.671 0.320801 275.058 0.320801 278.003C0.320801 280.947 2.71053 283.337 5.66932 283.337H107.008C108.402 283.337 109.767 282.768 110.763 281.775C111.759 280.779 112.328 279.408 112.328 278.003V64.6712C112.328 61.7238 109.938 59.3369 107.008 59.3369C104.049 59.3369 101.659 61.7238 101.659 64.6712" fill="#CBB45E"/>
<path d="M110.336 116.83L137.007 95.4982C139.297 93.6581 139.669 90.3012 137.837 88.0004C135.977 85.6995 132.629 85.3276 130.34 87.1677L103.668 108.499C101.379 110.342 101.006 113.699 102.838 115.997C104.669 118.298 108.018 118.67 110.336 116.83Z" fill="#CBB45E"/>
<path d="M336.314 182.003C327.536 182.003 319.505 185.616 313.713 191.399C307.95 197.174 304.337 205.199 304.337 214.004V336.67C304.337 338.074 304.905 339.45 305.89 340.441C306.875 341.436 308.249 342.003 309.652 342.003H336.314C339.27 342.003 341.658 339.617 341.658 336.67C341.658 333.727 339.27 331.338 336.314 331.338H314.996V214.004C314.996 208.14 317.385 202.834 321.266 198.941C325.148 195.06 330.462 192.671 336.314 192.671C339.27 192.671 341.658 190.283 341.658 187.339C341.658 184.392 339.27 182.003 336.314 182.003" fill="#CBB45E"/>
<path d="M277.667 240.672H309.647C312.616 240.672 314.991 238.282 314.991 235.339C314.991 232.393 312.616 230.003 309.647 230.003H277.667C274.698 230.003 272.322 232.393 272.322 235.339C272.322 238.282 274.698 240.672 277.667 240.672Z" fill="#CBB45E"/>
<path d="M277.667 310.006H309.647C312.616 310.006 314.991 307.615 314.991 304.67C314.991 301.724 312.616 299.337 309.647 299.337H277.667C274.698 299.337 272.322 301.724 272.322 304.67C272.322 307.615 274.698 310.006 277.667 310.006Z" fill="#CBB45E"/>
<path d="M250.995 187.333V182C242.205 182 234.182 185.613 228.401 191.398C222.619 197.17 218.991 205.196 218.991 214.001V336.667C218.991 338.071 219.581 339.446 220.554 340.437C221.557 341.431 222.944 342 224.33 342H277.661C279.077 342 280.433 341.431 281.436 340.437C282.439 339.446 283 338.071 283 336.667V214.001C283 205.196 279.371 197.17 273.59 191.398C267.838 185.613 259.785 182 250.995 182V187.333V192.666C256.865 192.669 262.175 195.055 266.068 198.937C269.932 202.831 272.322 208.137 272.322 214.001V331.334H229.669V214.001C229.669 208.137 232.058 202.831 235.923 198.937C239.816 195.055 245.125 192.669 250.995 192.666V187.333" fill="#CBB45E"/>
<path d="M192.329 240.668H224.328C227.275 240.668 229.666 238.279 229.666 235.333C229.666 232.39 227.275 230.001 224.328 230.001H192.329C189.383 230.001 186.991 232.39 186.991 235.333C186.991 238.279 189.383 240.668 192.329 240.668Z" fill="#CBB45E"/>
<path d="M192.329 310.002H224.328C227.275 310.002 229.666 307.613 229.666 304.667C229.666 301.721 227.275 299.335 224.328 299.335H192.329C189.383 299.335 186.991 301.721 186.991 304.667C186.991 307.613 189.383 310.002 192.329 310.002Z" fill="#CBB45E"/>
<path d="M165.688 187.331V181.997C156.88 181.997 148.854 185.61 143.088 191.393C137.294 197.167 133.672 205.193 133.672 213.998V336.663C133.672 338.068 134.251 339.441 135.237 340.435C136.222 341.429 137.612 341.997 139.003 341.997H192.343C193.734 341.997 195.125 341.429 196.11 340.435C197.095 339.441 197.674 338.068 197.674 336.663V213.998C197.674 205.193 194.053 197.167 188.287 191.393C182.492 185.61 174.467 181.997 165.688 181.997V187.331V192.665C171.54 192.665 176.842 195.052 180.754 198.934C184.607 202.826 187.012 208.134 187.012 213.998V331.332H144.334V213.998C144.334 208.134 146.739 202.826 150.621 198.934C154.504 195.052 159.806 192.665 165.688 192.665V187.331" fill="#CBB45E"/>
</svg>
