<svg width="86" height="79" viewBox="0 0 86 79" fill="none" xmlns="http://www.w3.org/2000/svg">
<path d="M84.3333 59.2079C70.1974 59.2079 41.612 70.3694 34.32 77.6667C21.6667 71 13.6654 71 1.66669 71" stroke="#CBB45E" stroke-width="2.66667" stroke-miterlimit="10" stroke-linecap="square" stroke-linejoin="round"/>
<path d="M11.0001 56.3333V71" stroke="#CBB45E" stroke-width="2.66667" stroke-miterlimit="10" stroke-linecap="round" stroke-linejoin="round"/>
<path d="M20.3334 29.7187C20.3334 45.212 17.6667 56.3333 11 56.3333C4.33335 56.3333 1.66669 45.212 1.66669 29.7187C1.66669 16.052 7.00002 1.66668 11 1.66668C15 1.66668 20.3334 16.052 20.3334 29.7187V29.7187Z" stroke="#CBB45E" stroke-width="2.66667" stroke-miterlimit="10" stroke-linecap="round" stroke-linejoin="round"/>
<path d="M20.3334 16.3333C23.4907 16.3333 26.368 27.9133 26.368 38.9136C26.368 51.3828 24.2627 60.3333 19.0001 60.3333C16.7721 60.3333 15.1094 58.7292 13.9334 55.9317" stroke="#CBB45E" stroke-width="2.66667" stroke-miterlimit="10" stroke-linecap="round" stroke-linejoin="round"/>
<path d="M19.0001 60.3333V71" stroke="#CBB45E" stroke-width="2.66667" stroke-miterlimit="10" stroke-linecap="round" stroke-linejoin="round"/>
<path d="M56.3334 65.6667V53.6667H67V61.6667" stroke="#CBB45E" stroke-width="2.66667" stroke-miterlimit="10" stroke-linecap="round" stroke-linejoin="round"/>
<path d="M72.3333 31V27H80.3333V37.6667" stroke="#CBB45E" stroke-width="2.66667" stroke-miterlimit="10" stroke-linecap="round" stroke-linejoin="round"/>
<path d="M43.0001 71V47H39.0001V40.5172L61.6667 24.3334L84.3334 40.5172V47H80.3334V59" stroke="#CBB45E" stroke-width="2.66667" stroke-miterlimit="10" stroke-linecap="round" stroke-linejoin="round"/>
</svg>
