<svg width="342" height="342" viewBox="0 0 342 342" fill="none" xmlns="http://www.w3.org/2000/svg">
<path d="M253.994 330.673H11.3183V80.0125H229.984C232.94 80.0125 235.328 77.6246 235.328 74.6688C235.328 71.7276 232.94 69.3398 229.984 69.3398H5.98916C4.59137 69.3398 3.22279 69.9076 2.21813 70.8977C1.22804 71.9023 0.660156 73.271 0.660156 74.6688V336.007C0.660156 337.41 1.22804 338.785 2.21813 339.778C3.22279 340.771 4.59137 341.34 5.98916 341.34H253.994C256.935 341.34 259.323 338.952 259.323 336.007C259.323 333.061 256.935 330.673 253.994 330.673" fill="#CBB45E"/>
<path d="M341.997 282.67C341.997 282.67 341.997 88.1294 341.997 58.6725C341.997 42.49 335.428 27.7842 324.805 17.1918C314.213 6.58425 299.522 -0.000317039 283.324 -0.000317039H262.004C260.602 -0.000317039 259.231 0.572306 258.222 1.56676C257.242 2.56121 256.67 3.93235 256.67 5.33363V229.342C256.67 230.743 257.242 232.114 258.222 233.109C259.231 234.103 260.602 234.675 262.004 234.675H283.324C296.599 234.675 308.577 240.039 317.271 248.733C325.965 257.427 331.329 269.397 331.329 282.67C331.329 295.941 325.965 307.906 317.271 316.611C308.577 325.305 296.599 330.667 283.324 330.669H246.002C243.049 330.669 240.668 333.057 240.668 336.003C240.668 338.948 243.049 341.337 246.002 341.337H283.324C299.522 341.338 314.213 334.761 324.805 324.154C335.428 313.554 341.997 298.854 341.997 282.67C341.997 266.486 335.428 251.792 324.805 241.185C314.213 230.577 299.522 223.993 283.324 224.008H267.338V10.6674H283.324C296.599 10.6674 308.577 16.0316 317.271 24.7255C325.965 33.4345 331.329 45.398 331.329 58.6725C331.329 88.1294 331.329 282.67 331.329 282.67C331.329 285.614 333.71 288.002 336.663 288.002C339.616 288.002 341.997 285.614 341.997 282.67" fill="#CBB45E"/>
<path d="M86 154.665H59.3297C57.9345 154.665 56.5542 155.243 55.5598 156.238C54.5654 157.232 54.0015 158.598 54.0015 160.007V282.672C54.0015 284.074 54.5654 285.45 55.5598 286.442C56.5542 287.436 57.9345 288.004 59.3297 288.004H267.854C279.178 288.004 290.027 283.509 298.027 275.505L303.103 270.444C305.181 268.366 305.181 264.982 303.103 262.904C301.025 260.812 297.641 260.812 295.549 262.904L290.488 267.965C284.492 273.961 276.358 277.345 267.854 277.345H64.6579V165.336H86C88.9387 165.336 91.3281 162.946 91.3281 160.007C91.3281 157.054 88.9387 154.665 86 154.665" fill="#CBB45E"/>
<path d="M229.997 122.677H149.99C148.592 122.677 147.223 123.239 146.228 124.234C145.234 125.228 144.657 126.598 144.657 128.01V154.674H123.326C120.386 154.674 117.993 157.052 117.993 160.007C117.993 162.947 120.386 165.34 123.326 165.34H149.99C151.403 165.34 152.772 164.763 153.766 163.769C154.761 162.789 155.323 161.405 155.323 160.007V133.343H229.997C232.937 133.343 235.33 130.95 235.33 128.01C235.33 125.055 232.937 122.677 229.997 122.677Z" fill="#CBB45E"/>
<path d="M144.665 224V282.669C144.665 285.62 147.046 288.001 149.997 288.001C152.949 288.001 155.329 285.62 155.329 282.669V224C155.329 221.062 152.949 218.668 149.997 218.668C147.046 218.668 144.665 221.062 144.665 224Z" fill="#CBB45E"/>
<path d="M187.334 192.004H229.997C232.937 192.004 235.33 189.611 235.33 186.671C235.33 183.731 232.937 181.338 229.997 181.338H187.334C184.38 181.338 182.001 183.731 182.001 186.671C182.001 189.611 184.38 192.004 187.334 192.004Z" fill="#CBB45E"/>
<path d="M59.3337 229.326H117.999C120.95 229.326 123.338 226.938 123.338 224.001C123.338 221.049 120.95 218.661 117.999 218.661H59.3337C56.3964 218.661 54.0081 221.049 54.0081 224.001C54.0081 226.938 56.3964 229.326 59.3337 229.326Z" fill="#CBB45E"/>
<path d="M144.665 160V186.675C144.665 189.612 147.046 192.007 149.997 192.007C152.949 192.007 155.329 189.612 155.329 186.675V160C155.329 157.062 152.949 154.667 149.997 154.667C147.046 154.667 144.665 157.062 144.665 160Z" fill="#CBB45E"/>
</svg>
