<svg width="22" height="23" viewBox="0 0 22 23" fill="none" xmlns="http://www.w3.org/2000/svg">
<path d="M18.646 3.80095C16.648 1.79895 13.994 0.699951 11.165 0.699951C5.334 0.699951 0.591 5.44295 0.591 11.27C0.587 13.135 1.075 14.955 2.001 16.555L0.5 22.034L6.108 20.562C7.651 21.406 9.391 21.848 11.161 21.852H11.165C16.992 21.852 21.735 17.109 21.739 11.278C21.739 8.45395 20.643 5.79895 18.646 3.80095ZM16.338 15.049C16.119 15.665 15.04 16.261 14.556 16.302C14.068 16.347 13.613 16.521 11.384 15.645C8.696 14.587 7.001 11.832 6.868 11.655C6.735 11.481 5.793 10.224 5.793 8.92495C5.793 7.62195 6.475 6.98495 6.715 6.72095C6.959 6.45695 7.245 6.38995 7.422 6.38995C7.596 6.38995 7.774 6.38995 7.926 6.39795C8.117 6.40195 8.323 6.41495 8.521 6.85295C8.757 7.37395 9.27 8.68095 9.336 8.81295C9.402 8.94495 9.448 9.10295 9.357 9.27595C9.27 9.45395 9.224 9.56095 9.097 9.71795C8.964 9.87095 8.82 10.061 8.7 10.177C8.567 10.31 8.431 10.454 8.584 10.718C8.737 10.982 9.266 11.847 10.052 12.546C11.061 13.447 11.913 13.724 12.177 13.857C12.441 13.99 12.595 13.969 12.748 13.791C12.905 13.617 13.409 13.022 13.587 12.757C13.761 12.493 13.939 12.538 14.178 12.624C14.422 12.711 15.721 13.352 15.985 13.484C16.249 13.616 16.423 13.682 16.489 13.79C16.555 13.902 16.555 14.431 16.336 15.047L16.338 15.049Z" fill="#CBB45E"/>
</svg>
